{
  "accessors": [
    {
      "bufferView": 2,
      "componentType": 5126,
      "count": 10402,
      "max": [
        84.95716857910156,
        12.424470901489258,
        176.34439086914063
      ],
      "min": [
        -84.95751190185547,
        -13.137518882751465,
        0.027202999219298363
      ],
      "type": "VEC3"
    },
    {
      "bufferView": 2,
      "byteOffset": 124824,
      "componentType": 5126,
      "count": 10402,
      "max": [
        0.9999603629112244,
        0.9998908638954163,
        0.9999899864196777
      ],
      "min": [
        -0.9999076128005981,
        -0.9999198913574219,
        -0.9999902248382568
      ],
      "type": "VEC3"
    },
    {
      "bufferView": 1,
      "componentType": 5126,
      "count": 10402,
      "max": [
        0.9924700260162354,
        0.9978560209274292
      ],
      "min": [
        0.004989999812096357,
        0.008089999668300152
      ],
      "type": "VEC2"
    },
    {
      "bufferView": 0,
      "componentType": 5125,
      "count": 54918,
      "type": "SCALAR"
    },
    {
      "bufferView": 2,
      "byteOffset": 249648,
      "componentType": 5126,
      "count": 902,
      "max": [
        7.250817775726318,
        -5.030768871307373,
        165.16586303710938
      ],
      "min": [
        -7.046850204467773,
        -11.066601753234863,
        160.8026123046875
      ],
      "type": "VEC3"
    },
    {
      "bufferView": 2,
      "byteOffset": 260472,
      "componentType": 5126,
      "count": 902,
      "max": [
        0.9999726414680481,
        0.9991352558135986,
        0.9991808533668518
      ],
      "min": [
        -0.9999727606773376,
        -0.9935414791107178,
        -0.999181866645813
      ],
      "type": "VEC3"
    },
    {
      "bufferView": 1,
      "byteOffset": 83216,
      "componentType": 5126,
      "count": 902,
      "max": [
        0.5983250141143799,
        0.9982979893684387
      ],
      "min": [
        0.501675009727478,
        0.602649986743927
      ],
      "type": "VEC2"
    },
    {
      "bufferView": 0,
      "byteOffset": 219672,
      "componentType": 5125,
      "count": 4878,
      "type": "SCALAR"
    }
  ],
  "asset": {
    "extras": {
      "author": "Raj_Kumar_Jadhav (https://sketchfab.com/mynameisRJ)",
      "license": "CC-BY-4.0 (http://creativecommons.org/licenses/by/4.0/)",
      "source": "https://sketchfab.com/3d-models/male-boy-862c7fdb00cb4c8ba572ead557536cc4",
      "title": "Male Boy"
    },
    "generator": "Sketchfab-13.74.0",
    "version": "2.0"
  },
  "bufferViews": [
    {
      "buffer": 0,
      "byteLength": 239184,
      "name": "floatBufferViews",
      "target": 34963
    },
    {
      "buffer": 0,
      "byteLength": 90432,
      "byteOffset": 239184,
      "byteStride": 8,
      "name": "floatBufferViews",
      "target": 34962
    },
    {
      "buffer": 0,
      "byteLength": 271296,
      "byteOffset": 329616,
      "byteStride": 12,
      "name": "floatBufferViews",
      "target": 34962
    }
  ],
  "buffers": [
    {
      "byteLength": 600912,
      "uri": "scene.bin"
    }
  ],
  "materials": [
    {
      "doubleSided": true,
      "name": "Body",
      "pbrMetallicRoughness": {
        "baseColorFactor": [
          0.5259747095201842,
          0.4141051305258588,
          0.4141051305258588,
          1.0
        ],
        "metallicFactor": 0.0
      }
    }
  ],
  "meshes": [
    {
      "name": "Object_0",
      "primitives": [
        {
          "attributes": {
            "NORMAL": 1,
            "POSITION": 0,
            "TEXCOORD_0": 2
          },
          "indices": 3,
          "material": 0,
          "mode": 4
        }
      ]
    },
    {
      "name": "Object_1",
      "primitives": [
        {
          "attributes": {
            "NORMAL": 5,
            "POSITION": 4,
            "TEXCOORD_0": 6
          },
          "indices": 7,
          "material": 0,
          "mode": 4
        }
      ]
    }
  ],
  "nodes": [
    {
      "children": [
        1
      ],
      "matrix": [
        1.0,
        0.0,
        0.0,
        0.0,
        0.0,
        2.220446049250313e-16,
        -1.0,
        0.0,
        0.0,
        1.0,
        2.220446049250313e-16,
        0.0,
        0.0,
        0.0,
        0.0,
        1.0
      ],
      "name": "Sketchfab_model"
    },
    {
      "children": [
        2,
        3
      ],
      "name": "Male_Black_Boy.obj.cleaner.materialmerger.gles"
    },
    {
      "mesh": 0,
      "name": "Object_2"
    },
    {
      "mesh": 1,
      "name": "Object_3"
    }
  ],
  "scene": 0,
  "scenes": [
    {
      "name": "Sketchfab_Scene",
      "nodes": [
        0
      ]
    }
  ]
}
